<svg viewBox="0 0 70 70" fill="none" xmlns="http://www.w3.org/2000/svg"><circle cx="35" cy="35" r="35" fill="#6C88F9" fill-opacity=".1"/><path opacity=".5" fill-rule="evenodd" clip-rule="evenodd" d="M39 26.334a2 2 0 00-4 0v13.333a2 2 0 104 0V26.333zM32.333 33a2 2 0 00-4 0v6.666a2 2 0 104 0V33z" fill="#6C88F9"/><path fill-rule="evenodd" clip-rule="evenodd" d="M25.667 44.334h20a1.334 1.334 0 010 2.666H24.333A1.333 1.333 0 0123 45.668V24.333a1.333 1.333 0 112.667 0v20z" fill="#6C88F9"/><path opacity=".5" fill-rule="evenodd" clip-rule="evenodd" d="M45.667 35.666a2 2 0 00-4 0v4a2 2 0 004 0v-4z" fill="#6C88F9"/></svg>