<svg xmlns="http://www.w3.org/2000/svg" xmlns:xlink="http://www.w3.org/1999/xlink" viewBox="0 0 16 20"><defs><path d="M16 16H4a1 1 0 100 2h12v1c0 .627-.358 1-1 1H3c-1.746 0-3-1.306-3-3V3c0-1.694 1.254-3 3-3h12c.642 0 1 .373 1 1v15z" id="a"/></defs><g fill="none" fill-rule="evenodd"><mask id="b" fill="#fff"><use xlink:href="#a"/></mask><g mask="url(#b)" fill="#1CA677"><path d="M16 16H4a1 1 0 100 2h12v1c0 .627-.358 1-1 1H3c-1.746 0-3-1.306-3-3V3c0-1.694 1.254-3 3-3h12c.642 0 1 .373 1 1v15z" opacity=".3"/><path d="M5.35 9.588C4.574 9.378 4 8.642 4 7.765c0-1.04.806-1.883 1.8-1.883.051 0 .102.003.151.007C6.321 4.789 7.322 4 8.5 4s2.18.789 2.549 1.889c.05-.004.1-.007.151-.007.994 0 1.8.843 1.8 1.883 0 .877-.574 1.614-1.35 1.823v1.941a.46.46 0 01-.45.471H5.8a.46.46 0 01-.45-.47V9.587z"/></g></g></svg>