<svg viewBox="0 0 20 18" fill="none" xmlns="http://www.w3.org/2000/svg"><path fill-rule="evenodd" clip-rule="evenodd" d="M9.5 3h-3a1 1 0 00-1 1v3h4a.35.35 0 01.34.46l-.74 2.2a.5.5 0 01-.47.34H5.5v7.5a.5.5 0 01-.5.5H2.5a.5.5 0 01-.5-.5V10H.5a.5.5 0 01-.5-.5v-2A.5.5 0 01.5 7H2V4a4 4 0 014-4h3.5a.5.5 0 01.5.5v2a.5.5 0 01-.5.5z" fill="#6F737A"/><path fill-rule="evenodd" clip-rule="evenodd" d="M19.5 3h-3a1 1 0 00-1 1v3h4a.35.35 0 01.34.46l-.74 2.2a.5.5 0 01-.47.34H15.5v7.5a.5.5 0 01-.5.5h-2.5a.5.5 0 01-.5-.5V10h-1.5a.5.5 0 01-.5-.5v-2a.5.5 0 01.5-.5H12V4a4 4 0 014-4h3.5a.5.5 0 01.5.5v2a.5.5 0 01-.5.5z" fill="#4267B2"/></svg>