<svg viewBox="0 0 25 10" fill="none" xmlns="http://www.w3.org/2000/svg"><path d="M11.881 1.643H.548a.333.333 0 01-.333-.334V.643A.333.333 0 01.548.309h11.333a.333.333 0 01.334.334v.666a.333.333 0 01-.334.334zm-1.666 3.666v-.666a.333.333 0 00-.334-.334H2.548a.333.333 0 00-.333.334v.666a.333.333 0 00.333.334h7.333a.333.333 0 00.334-.334zm-2 4v-.666a.333.333 0 00-.334-.334H4.548a.333.333 0 00-.333.334v.666a.333.333 0 00.333.334h3.333a.333.333 0 00.334-.334z" fill="#fff"/><path d="M23.881 1.643H12.548a.333.333 0 01-.333-.334V.643a.333.333 0 01.333-.334h11.333a.333.333 0 01.334.334v.666a.333.333 0 01-.334.334zm-1.666 3.666v-.666a.333.333 0 00-.334-.334h-7.333a.333.333 0 00-.333.334v.666a.333.333 0 00.333.334h7.333a.333.333 0 00.334-.334zm-2 4v-.666a.333.333 0 00-.334-.334h-3.333a.333.333 0 00-.333.334v.666a.333.333 0 00.333.334h3.333a.333.333 0 00.334-.334z" fill="#6F737A"/></svg>