<svg viewBox="0 0 70 70" fill="none" xmlns="http://www.w3.org/2000/svg"><circle cx="35" cy="35" r="35" fill="#6C88F9" fill-opacity=".1"/><path d="M41.334 17H28a5 5 0 00-5 5v26.667a5 5 0 005 5h13.334a5 5 0 005-5V22a5 5 0 00-5-5zm0 33.333H28a1.667 1.667 0 01-1.666-1.666V22a1.67 1.67 0 012.87-1.225A1.668 1.668 0 0129.668 22a1.667 1.667 0 001.667 1.667H38A1.667 1.667 0 0039.667 22a1.67 1.67 0 012.87-1.225A1.668 1.668 0 0143 22v26.667a1.667 1.667 0 01-1.666 1.666z" fill="#6C88F9"/><path d="M39.334 34.999v.667a.333.333 0 01-.334.333h-3.666v3.667a.333.333 0 01-.334.333h-.666a.335.335 0 01-.334-.333v-3.667h-3.666a.335.335 0 01-.334-.333v-.667a.332.332 0 01.334-.333H34v-3.667a.334.334 0 01.334-.333H35a.334.334 0 01.334.333v3.667H39a.334.334 0 01.334.333z" fill="#6C88F9"/></svg>