<svg viewBox="0 0 70 70" fill="none" xmlns="http://www.w3.org/2000/svg"><circle cx="35" cy="35" r="35" fill="#1BC98E" fill-opacity=".1"/><path opacity=".3" d="M39 32.547a1.667 1.667 0 00-2.795-1.816l-5.129 7.898a1.667 1.667 0 002.796 1.816L39 32.547z" fill="#1CA677"/><path fill-rule="evenodd" clip-rule="evenodd" d="M27.5 21h15a7.5 7.5 0 017.5 7.5v13.333a7.5 7.5 0 01-7.5 7.5h-15a7.5 7.5 0 01-7.5-7.5V28.5a7.5 7.5 0 017.5-7.5zM25 29.137L29.286 36h11.428L45 29.137c-1.667-3.202-5-4.804-10-4.804s-8.333 1.602-10 4.804z" fill="#1CA677"/></svg>