<svg fill="none" xmlns="http://www.w3.org/2000/svg" viewBox="0 0 36 14"><path d="M17.5 2H.5a.5.5 0 01-.5-.5v-1A.5.5 0 01.5 0h17a.5.5 0 01.5.5v1a.5.5 0 01-.5.5zm.5 5.5v-1a.5.5 0 00-.5-.5h-11a.5.5 0 00-.5.5v1a.5.5 0 00.5.5h11a.5.5 0 00.5-.5zm0 6v-1a.5.5 0 00-.5-.5h-5a.5.5 0 00-.5.5v1a.5.5 0 00.5.5h5a.5.5 0 00.5-.5z" fill="#fff"/><path d="M35.5 2h-17a.5.5 0 01-.5-.5v-1a.5.5 0 01.5-.5h17a.5.5 0 01.5.5v1a.5.5 0 01-.5.5zm.5 5.5v-1a.5.5 0 00-.5-.5h-11a.5.5 0 00-.5.5v1a.5.5 0 00.5.5h11a.5.5 0 00.5-.5zm0 6v-1a.5.5 0 00-.5-.5h-5a.5.5 0 00-.5.5v1a.5.5 0 00.5.5h5a.5.5 0 00.5-.5z" fill="#333"/></svg>