<svg viewBox="0 0 70 70" fill="none" xmlns="http://www.w3.org/2000/svg"><circle cx="35" cy="35" r="35" fill="#F94642" fill-opacity=".1"/><path d="M21.334 40.333v-3.334A1.667 1.667 0 0123 35.333h3.334A1.667 1.667 0 0128 36.999v3.334a1.666 1.666 0 01-1.666 1.666H23a1.667 1.667 0 01-1.666-1.666zM33 41.999h3.334A1.667 1.667 0 0038 40.333V23.666A1.667 1.667 0 0036.334 22H33a1.667 1.667 0 00-1.666 1.666v16.667A1.667 1.667 0 0033 41.999zm10 0h3.334A1.667 1.667 0 0048 40.333v-10a1.667 1.667 0 00-1.666-1.667H43a1.667 1.667 0 00-1.666 1.667v10A1.667 1.667 0 0043 41.999zm7.5 3.334H18.834a.834.834 0 00-.834.833v1.667a.833.833 0 00.834.833H50.5a.834.834 0 00.834-.833v-1.667a.833.833 0 00-.834-.833z" fill="#F94642"/></svg>