<svg viewBox="0 0 36 18" fill="none" xmlns="http://www.w3.org/2000/svg"><path d="M13 0H5a5 5 0 00-5 5v8a5 5 0 005 5h8a5 5 0 005-5V5a5 5 0 00-5-5zm3.25 13A3.26 3.26 0 0113 16.25H5A3.26 3.26 0 011.75 13V5A3.26 3.26 0 015 1.75h8A3.26 3.26 0 0116.25 5v8zm-1.5-8.75a1 1 0 11-2 0 1 1 0 012 0zM9 4.5A4.5 4.5 0 1013.5 9 4.49 4.49 0 009 4.5zm0 7.25a2.75 2.75 0 110-5.5 2.75 2.75 0 010 5.5z" fill="#6F737A"/><path fill-rule="evenodd" clip-rule="evenodd" d="M32.786 4.18a.965.965 0 10-1.93-.001.965.965 0 001.93 0z" fill="url(#paint0_linear)"/><path d="M34.325 12.636c-.04.878-.187 1.355-.309 1.671a2.78 2.78 0 01-.675 1.035c-.29.3-.643.53-1.034.672-.316.124-.795.27-1.672.313-.95.042-1.23.05-3.636.05-2.404 0-2.687-.008-3.636-.05-.877-.042-1.354-.19-1.67-.313a2.755 2.755 0 01-1.035-.672c-.3-.29-.53-.643-.674-1.035-.122-.316-.271-.793-.309-1.67-.046-.95-.055-1.235-.055-3.636 0-2.406.009-2.69.055-3.638.038-.877.187-1.354.309-1.673a2.72 2.72 0 01.674-1.033c.315-.314.613-.51 1.035-.673.316-.124.793-.27 1.67-.311.949-.042 1.232-.053 3.636-.053 2.406 0 2.687.011 3.636.053.877.042 1.356.187 1.672.31.42.164.72.36 1.034.674.316.315.512.614.675 1.033.122.32.269.796.309 1.673.044.949.055 1.232.055 3.638 0 2.401-.011 2.687-.055 3.635zm1.62-7.347c-.044-.959-.195-1.614-.42-2.184a4.386 4.386 0 00-1.036-1.596c-.5-.5-1.002-.806-1.594-1.037C32.323.25 31.67.097 30.71.055 29.75.008 29.444 0 26.999 0c-2.443 0-2.752.008-3.711.055-.958.042-1.61.195-2.186.417a4.436 4.436 0 00-1.59 1.037c-.459.45-.813.995-1.04 1.596-.222.57-.372 1.225-.42 2.184C18.011 6.25 18 6.556 18 9.001c0 2.443.01 2.75.052 3.71.047.956.198 1.611.42 2.184a4.42 4.42 0 001.04 1.594c.499.5 1 .808 1.59 1.039.576.222 1.228.372 2.186.417.959.045 1.268.055 3.71.055 2.446 0 2.753-.01 3.712-.055.96-.044 1.613-.195 2.185-.417a4.43 4.43 0 001.594-1.04 4.37 4.37 0 001.036-1.593c.225-.573.376-1.228.42-2.185.044-.96.055-1.266.055-3.709 0-2.445-.01-2.752-.055-3.712z" fill="url(#paint1_linear)"/><path d="M27 11.92a2.921 2.921 0 010-5.84 2.92 2.92 0 110 5.84zm0-7.42a4.5 4.5 0 10.004 9.001 4.5 4.5 0 00-.005-9.001z" fill="url(#paint2_linear)"/><defs><linearGradient id="paint0_linear" x1="19.645" y1="16.346" x2="34.241" y2="1.762" gradientUnits="userSpaceOnUse"><stop stop-color="#FFD521"/><stop offset=".05" stop-color="#FFD521"/><stop offset=".501" stop-color="#F50000"/><stop offset=".95" stop-color="#B900B4"/><stop offset=".95" stop-color="#B900B4"/><stop offset="1" stop-color="#B900B4"/></linearGradient><linearGradient id="paint1_linear" x1="18.162" y1="17.836" x2="34.514" y2="1.484" gradientUnits="userSpaceOnUse"><stop stop-color="#FFD521"/><stop offset=".05" stop-color="#FFD521"/><stop offset=".501" stop-color="#F50000"/><stop offset=".95" stop-color="#B900B4"/><stop offset=".95" stop-color="#B900B4"/><stop offset="1" stop-color="#B900B4"/></linearGradient><linearGradient id="paint2_linear" x1="18.399" y1="17.606" x2="34.316" y2="1.684" gradientUnits="userSpaceOnUse"><stop stop-color="#FFD521"/><stop offset=".05" stop-color="#FFD521"/><stop offset=".501" stop-color="#F50000"/><stop offset=".95" stop-color="#B900B4"/><stop offset=".95" stop-color="#B900B4"/><stop offset="1" stop-color="#B900B4"/></linearGradient></defs></svg>