<svg xmlns="http://www.w3.org/2000/svg" viewBox="0 0 40 20"><g fill="none" fill-rule="evenodd"><path d="M40 10a10 10 0 01-10 10 9.824 9.824 0 01-2.25-.26.48.48 0 01-.34-.28.49.49 0 010-.44l.15-.29a5.91 5.91 0 00.56-1.54l.66-3.1a3.94 3.94 0 002.92 1.07c3.09 0 5.17-2.42 5.17-6 0-3.43-3-6-6.88-6s-6.88 2.7-6.88 6a5.48 5.48 0 001.78 4 .491.491 0 00.49.12.47.47 0 00.34-.37l.2-.9a.52.52 0 00-.11-.43 3.61 3.61 0 01-.94-2.38c0-2.35 2.29-4.26 5.12-4.26s5.12 1.79 5.12 4.26c0 2.07-.89 4.27-3.41 4.27a2.141 2.141 0 01-2.36-1.93l.65-3a1.8 1.8 0 00-.21-1.51 1.06 1.06 0 00-.78-.48c-1.47 0-1.55 2.47-1.55 3-.007.65.046 1.3.16 1.94l-1.28 5.77a5.74 5.74 0 00-.13 1.49.34.34 0 01-.14.28.31.31 0 01-.31 0A10 10 0 1140 10z" fill="#D7143A"/><path d="M20 10a10 10 0 01-10 10 9.824 9.824 0 01-2.25-.26.48.48 0 01-.34-.28.49.49 0 010-.44l.15-.29a5.91 5.91 0 00.56-1.54l.66-3.1a3.94 3.94 0 002.92 1.07c3.09 0 5.17-2.42 5.17-6 0-3.43-3-6-6.88-6s-6.88 2.7-6.88 6a5.48 5.48 0 001.78 4 .491.491 0 00.49.12.47.47 0 00.34-.37l.2-.9a.52.52 0 00-.11-.43 3.61 3.61 0 01-.94-2.38c0-2.35 2.29-4.26 5.12-4.26s5.12 1.79 5.12 4.26c0 2.07-.89 4.27-3.41 4.27a2.141 2.141 0 01-2.36-1.93l.65-3a1.8 1.8 0 00-.21-1.51A1.06 1.06 0 009 6.55c-1.47 0-1.55 2.47-1.55 3-.007.65.046 1.3.16 1.94l-1.28 5.77a5.74 5.74 0 00-.13 1.49.34.34 0 01-.14.28.31.31 0 01-.31 0A10 10 0 1120 10z" fill="#6F737A"/></g></svg>