<svg fill="none" xmlns="http://www.w3.org/2000/svg" viewBox="0 0 45 38"><path opacity=".1" fill-rule="evenodd" clip-rule="evenodd" d="M31.778 36.945l-1.416-.897-.614-.566c-2.213-1.957-4.632-5.71-3.988-12.844.377-5.58 3.192-13.932 14.456-22.067A3.133 3.133 0 0142.022 0c.875 0 1.744.359 2.328 1.06.997 1.191.76 2.91-.523 3.834C34.647 11.512 32.143 18 31.699 22.448c1.295-.675 2.76-1.088 4.347-1.088 4.942 0 8.954 3.725 8.954 8.32 0 4.595-4.006 8.32-8.954 8.32-1.119 0-2.146-.255-3.125-.614l.03.065-1.033-.44-.091-.033-.049-.033zm-26.66-.897l-.62-.566c-2.226-1.957-4.645-5.71-4-12.844C.88 17.058 3.687 8.706 14.958.57A3.134 3.134 0 0116.765 0c.875 0 1.745.359 2.328 1.06.997 1.191.766 2.91-.523 3.834C9.391 11.512 6.887 18 6.45 22.448c1.295-.675 2.76-1.088 4.346-1.088 4.955 0 8.955 3.725 8.955 8.32 0 4.595-4 8.32-8.942 8.32-1.119 0-2.152-.255-3.131-.614l.03.065-1.033-.44-.098-.033-.048-.033-1.41-.897z" fill="#090509"/></svg>