<svg viewBox="0 0 70 70" fill="none" xmlns="http://www.w3.org/2000/svg"><circle cx="35" cy="35" r="35" fill="#FDA120" fill-opacity=".1"/><path opacity=".3" fill-rule="evenodd" clip-rule="evenodd" d="M34.936 22.001a1.667 1.667 0 011.494.93l3.404 6.896 7.612 1.105a1.666 1.666 0 01.924 2.843l-5.508 5.368 1.3 7.58a1.665 1.665 0 01-2.418 1.757l-6.808-3.578V22.001z" fill="#D57410"/><path fill-rule="evenodd" clip-rule="evenodd" d="M34.936 22.001v22.901l-6.807 3.579a1.667 1.667 0 01-2.418-1.757l1.3-7.58-5.508-5.368a1.667 1.667 0 01.924-2.843l7.61-1.106 3.404-6.897a1.67 1.67 0 011.495-.93v.001z" fill="#D57410"/></svg>