<svg viewBox="0 0 40 17" fill="none" xmlns="http://www.w3.org/2000/svg"><path fill-rule="evenodd" clip-rule="evenodd" d="M39.97 2.462a7.987 7.987 0 01-1.846 1.778v.549a12.182 12.182 0 01-12.352 12.202 12.222 12.222 0 01-5.442-1.258.249.249 0 01-.15-.23v-.11a.26.26 0 01.26-.26 8.847 8.847 0 005.112-1.837 4.365 4.365 0 01-3.884-2.556.259.259 0 01.13-.336.26.26 0 01.13-.023c.51.05 1.025.003 1.518-.14A4.353 4.353 0 0120 6.436a.26.26 0 01.36-.26c.497.22 1.033.336 1.577.34a4.274 4.274 0 01-1.708-4.932.54.54 0 01.91-.18 12.341 12.341 0 008.396 3.874 3.996 3.996 0 01-.12-.998 4.354 4.354 0 017.5-2.936 8.675 8.675 0 002.386-.829.17.17 0 01.18 0 .17.17 0 010 .18 4.364 4.364 0 01-1.758 1.997 8.566 8.566 0 001.997-.48.16.16 0 01.18 0 .168.168 0 01.093.11.169.169 0 01-.023.14z" fill="#1DA1F2"/><path fill-rule="evenodd" clip-rule="evenodd" d="M19.97 2.462a7.987 7.987 0 01-1.846 1.778v.549A12.182 12.182 0 015.771 16.991 12.221 12.221 0 01.33 15.733a.25.25 0 01-.15-.23v-.11a.26.26 0 01.26-.26 8.847 8.847 0 005.112-1.837 4.364 4.364 0 01-3.884-2.556.26.26 0 01.26-.36c.51.052 1.025.004 1.518-.14A4.353 4.353 0 010 6.437a.26.26 0 01.36-.26c.497.22 1.033.336 1.577.34A4.274 4.274 0 01.23 1.584a.54.54 0 01.91-.18 12.341 12.341 0 008.396 3.874 3.995 3.995 0 01-.12-.998 4.354 4.354 0 017.5-2.936 8.675 8.675 0 002.386-.829.17.17 0 01.18 0 .17.17 0 010 .18 4.364 4.364 0 01-1.758 1.997 8.566 8.566 0 001.997-.48.16.16 0 01.18 0 .168.168 0 01.093.11.169.169 0 01-.023.14z" fill="#6F737A"/></svg>