<svg viewBox="0 0 44 16" fill="none" xmlns="http://www.w3.org/2000/svg"><path d="M19 .49L17.54.34A64.12 64.12 0 004.4.34L3 .49A3.38 3.38 0 000 3.9v8.2a3.38 3.38 0 003 3.41l1.46.15c4.368.45 8.772.45 13.14 0l1.4-.15a3.38 3.38 0 003-3.41V3.9a3.38 3.38 0 00-3-3.41zm-5 8.13l-3.89 2.6A.75.75 0 019 10.6V5.4a.75.75 0 011.17-.62l3.89 2.6a.74.74 0 010 1.24H14z" fill="#6F737A"/><path d="M41 .49L39.54.34a64.12 64.12 0 00-13.14 0L25 .49a3.38 3.38 0 00-3 3.41v8.2a3.38 3.38 0 003 3.41l1.46.15c4.368.45 8.772.45 13.14 0l1.4-.15a3.38 3.38 0 003-3.41V3.9a3.38 3.38 0 00-3-3.41zm-5 8.13l-3.89 2.6A.75.75 0 0131 10.6V5.4a.75.75 0 011.17-.62l3.89 2.6a.74.74 0 010 1.24H36z" fill="red"/></svg>