<svg viewBox="0 0 70 70" fill="none" xmlns="http://www.w3.org/2000/svg"><circle cx="35" cy="35" r="35" fill="#F94642" fill-opacity=".1"/><path fill-rule="evenodd" clip-rule="evenodd" d="M29.334 22.667v.666a2 2 0 002 2H38a2 2 0 002-2v-.666h2.667a2.667 2.667 0 012.667 2.667v21.333a2.667 2.667 0 01-2.667 2.666h-16A2.667 2.667 0 0124 46.667V25.332a2.667 2.667 0 012.667-2.665h2.667z" fill="#F94642"/><path fill-rule="evenodd" clip-rule="evenodd" d="M33.167 39.667a1.255 1.255 0 01-.894-.384l-2.556-2.556a1.235 1.235 0 010-1.79c.511-.51 1.342-.51 1.789 0l1.661 1.663 4.217-4.216a1.235 1.235 0 011.789 0 1.234 1.234 0 010 1.789l-5.111 5.11a1.261 1.261 0 01-.895.384z" fill="#fff"/><path fill-rule="evenodd" clip-rule="evenodd" d="M33.334 21.333a1.333 1.333 0 112.666 0h2c.368 0 .667.298.667.666v1.334a.667.667 0 01-.667.668h-6.666a.667.667 0 01-.667-.668v-1.332c0-.37.298-.668.667-.668h2z" fill="#F94642"/></svg>