<svg viewBox="0 0 70 70" fill="none" xmlns="http://www.w3.org/2000/svg"><circle cx="35" cy="35" r="35" fill="#FDA120" fill-opacity=".1"/><path d="M40.333 40.334A6.666 6.666 0 0047 33.667v-10A6.667 6.667 0 0040.333 17H23.665A6.667 6.667 0 0017 23.667v20.834a.833.833 0 00.832.833.813.813 0 00.583-.25l3.335-3.334a4.998 4.998 0 013.583-1.415h15v-.001zm-3.334-12.5a.833.833 0 01.834-.833h1.666a.834.834 0 01.834.833v1.667a.833.833 0 01-.834.833h-1.666a.834.834 0 01-.834-.833v-1.667zm-6.666 0a.834.834 0 01.832-.833h1.668a.833.833 0 01.832.833v1.667a.833.833 0 01-.832.833h-1.668a.834.834 0 01-.832-.833v-1.667zm-6.667 1.667v-1.667a.833.833 0 01.834-.833h1.666a.83.83 0 01.834.833v1.667a.833.833 0 01-.834.833H24.5a.834.834 0 01-.834-.833zm26.667-5.834v13.334a6.666 6.666 0 01-6.668 6.666h-20A3.334 3.334 0 0027 47.001h18.332a5 5 0 013.55 1.466l3.334 3.333a.82.82 0 001.172.006.833.833 0 00.244-.589V27.001a3.334 3.334 0 00-3.3-3.334h.001z" fill="#FDA120"/></svg>