<svg viewBox="0 0 14 12" fill="none" xmlns="http://www.w3.org/2000/svg"><g clip-path="url(#clip0)"><path d="M6.78 5.28c.14.14.22.331.22.53v.38a.77.77 0 01-.22.53l-5.14 5.13a.501.501 0 01-.71 0l-.71-.71a.49.49 0 010-.7L4.67 6 .22 1.56a.5.5 0 010-.71l.71-.7a.5.5 0 01.71 0l5.14 5.13z" fill="#333"/></g><g clip-path="url(#clip1)"><path d="M13.78 5.28c.14.14.22.331.22.53v.38a.77.77 0 01-.22.53l-5.14 5.13a.501.501 0 01-.71 0l-.71-.71a.49.49 0 010-.7L11.67 6 7.22 1.56a.5.5 0 010-.71l.71-.7a.5.5 0 01.71 0l5.14 5.13z" fill="#fff"/></g><defs><clipPath id="clip0"><path fill="#fff" d="M0 0h7v12H0z"/></clipPath><clipPath id="clip1"><path fill="#fff" transform="translate(7)" d="M0 0h7v12H0z"/></clipPath></defs></svg>