<svg viewBox="0 0 70 70" fill="none" xmlns="http://www.w3.org/2000/svg"><circle cx="35" cy="35" r="35" fill="#FDA120" fill-opacity=".1"/><path fill-rule="evenodd" clip-rule="evenodd" d="M48.666 37.132v6.78A2.667 2.667 0 0146 46.58h-8a2.667 2.667 0 00-5.334 0h-8A2.667 2.667 0 0122 43.913v-16h26.666v5.446a1.998 1.998 0 100 3.772v.001zm-17.333 4.114a5.334 5.334 0 100-10.668 5.334 5.334 0 000 10.668zm12 1.333a1.333 1.333 0 100-2.667 1.333 1.333 0 000 2.667zM26 46.58a1.333 1.333 0 100-2.667 1.333 1.333 0 000 2.667z" fill="#D57410"/><path opacity=".5" fill-rule="evenodd" clip-rule="evenodd" d="M45.46 26.36l-19.982-2.35a1.334 1.334 0 00-1.265.583L22 27.913h26.666a5.432 5.432 0 00-3.206-1.554z" fill="#D57410"/></svg>