<svg viewBox="0 0 70 70" fill="none" xmlns="http://www.w3.org/2000/svg"><circle cx="35" cy="35" r="35" fill="#6C88F9" fill-opacity=".1"/><path d="M49.517 27.883A1.662 1.662 0 0150 29.066v1.95a1.667 1.667 0 01-.483 1.167l-2.767 2.733a1.665 1.665 0 01-1.183.483h-1.95a1.667 1.667 0 01-1.184-.483l-2.55-2.55-7.4 7.4L35 42.349a1.665 1.665 0 01.483 1.184v1.95A1.664 1.664 0 0135 46.666l-2.767 2.767c-.31.308-.73.481-1.166.483H29.15a1.668 1.668 0 01-1.183-.483L25.4 46.866l-2.8 2.8a.832.832 0 01-1.183 0L20.25 48.5a.832.832 0 010-1.184l2.8-2.8-2.567-2.567A1.666 1.666 0 0120 40.766v-1.95c.002-.437.175-.856.483-1.166l2.85-2.734a1.665 1.665 0 011.184-.483h1.866a1.664 1.664 0 011.184.483l2.55 2.55 7.4-7.4L35 27.483a1.671 1.671 0 01-.483-1.183v-1.95c.018-.414.19-.807.483-1.1l2.767-2.767c.31-.308.73-.482 1.166-.483h1.95a1.666 1.666 0 011.184.483l2.566 2.567 2.8-2.8a.835.835 0 011.184 0l1.166 1.166a.833.833 0 010 1.184l-2.833 2.716 2.567 2.567z" fill="#6C88F9"/></svg>