<svg viewBox="0 0 70 70" fill="none" xmlns="http://www.w3.org/2000/svg"><circle cx="35" cy="35" r="35" fill="#3177BB" fill-opacity=".1"/><path opacity=".5" fill-rule="evenodd" clip-rule="evenodd" d="M35.2 23.27l-7.052 8.462a1.67 1.67 0 01-2.562-2.133l8.336-10a1.666 1.666 0 012.559 0l8.335 10a1.663 1.663 0 01-.785 2.657 1.665 1.665 0 01-1.778-.525L35.2 23.27z" fill="#3177BB"/><path fill-rule="evenodd" clip-rule="evenodd" d="M20.667 30.666h29.068a1.666 1.666 0 011.615 2.071L47.816 46.88a5 5 0 01-4.851 3.788H27.438a5.001 5.001 0 01-4.85-3.788L19.05 32.737a1.668 1.668 0 011.619-2.07h-.003.001zm14.533 5c-.918 0-1.665.747-1.665 1.667V44a1.666 1.666 0 103.333 0v-6.668c0-.92-.748-1.667-1.668-1.667zm-8.391.228a1.666 1.666 0 00-1.178 2.041l1.725 6.438a1.666 1.666 0 003.22-.862l-1.726-6.44a1.665 1.665 0 00-2.043-1.177h.002zm16.786 0a1.665 1.665 0 00-2.043 1.178l-1.725 6.44a1.666 1.666 0 003.219.862l1.725-6.439a1.664 1.664 0 00-1.176-2.041z" fill="#3177BB"/></svg>