<svg viewBox="0 0 70 70" fill="none" xmlns="http://www.w3.org/2000/svg"><circle cx="35" cy="35" r="35" fill="#1BC98E" fill-opacity=".1"/><path d="M51.334 31.533v17.634A.833.833 0 0150.5 50h-1.25a.833.833 0 01-.833-.833V34.333l-11.9 8.567c-.412.282-.9.433-1.4.433h-.9c-.5 0-.988-.151-1.4-.433l-14.45-10.417A.817.817 0 0118 31.8v-.267a.815.815 0 01.367-.683l14.45-10.417c.412-.282.9-.433 1.4-.433h.9c.5 0 .988.151 1.4.433l14.45 10.417a.817.817 0 01.367.683zM35.117 46.25h-.9a5.55 5.55 0 01-3.117-.983l-6.433-4.65v2.716c0 3.684 4.483 6.667 10 6.667s10-2.983 10-6.667v-2.716l-6.5 4.683a5.417 5.417 0 01-3.05.95z" fill="#1BC98E"/></svg>