<svg viewBox="0 0 428 54" fill="none" xmlns="http://www.w3.org/2000/svg"><rect x="4" y="4" width="48" height="46.857" rx="8" fill="#fff"/><rect x="2.5" y="2.5" width="51" height="49.857" rx="9.5" stroke="#fff" stroke-opacity=".2" stroke-width="3"/><path d="M26.758 33.4a1.443 1.443 0 002.523-.003l4.857-8.762 7.016 12.323a1.443 1.443 0 102.508-1.428l-8.287-14.556a1.443 1.443 0 00-2.517.015l-4.844 8.74-4.88-8.744a1.443 1.443 0 00-2.519 0l-5.873 10.517.577 1.402.866 1.896 5.688-10.152 4.885 8.753z" fill="url(#paint0_linear)"/><path d="M14.248 34.413a15.117 15.117 0 01-.553-11.472 15.12 15.12 0 017.892-8.693c7.595-3.541 16.623-.255 20.165 7.34a1.443 1.443 0 102.616-1.22c-4.216-9.04-14.96-12.95-24-8.736a18.006 18.006 0 00-9.394 10.346 18.002 18.002 0 00.658 13.654c4.216 9.04 14.96 12.95 24 8.736.023-.01.044-.022.066-.033 2.375-1.258 4.132-2.477 5.284-3.69.226-.237.973-1.082.973-1.082s-.784-.165-1.402-.577c-.619-.412-.99-1.072-.99-1.072s-.48.539-.674.744c-.897.944-2.404 1.991-4.51 3.11-7.587 3.516-16.594.229-20.13-7.355z" fill="url(#paint1_linear)"/><path d="M66.947 31.376c3.108 0 4.928-1.488 6.06-3.187l-2.22-1.084c-.71 1.19-2.13 2.061-3.84 2.061-2.819 0-4.994-2.146-4.994-5.12 0-2.976 2.175-5.122 4.994-5.122 1.71 0 3.13.893 3.84 2.061l2.22-1.083c-1.11-1.7-2.952-3.188-6.06-3.188-4.261 0-7.657 2.975-7.657 7.331s3.396 7.33 7.657 7.33zm14.619-.255h2.33v-6.8c0-2.762-2.086-3.718-4.46-3.718-1.71 0-3.264.531-4.507 1.657l.955 1.551c.932-.87 1.975-1.296 3.174-1.296 1.487 0 2.508.723 2.508 1.913v1.53c-.777-.872-2.02-1.318-3.463-1.318-1.753 0-3.728.977-3.728 3.336 0 2.274 1.975 3.4 3.728 3.4 1.42 0 2.664-.489 3.463-1.36v1.105zm0-2.337c-.533.7-1.532 1.062-2.553 1.062-1.31 0-2.286-.722-2.286-1.827 0-1.127.977-1.849 2.286-1.849 1.021 0 2.02.361 2.553 1.062v1.552zm5.352 2.337h2.33v-6.99c.466-.723 1.776-1.36 2.752-1.36.289 0 .533.02.733.063v-2.21c-1.398 0-2.686.765-3.485 1.742v-1.508h-2.33V31.12zm7.694 0h2.33v-1.402a4.375 4.375 0 003.441 1.657c2.73 0 4.75-1.997 4.75-5.376 0-3.315-1.998-5.397-4.75-5.397a4.302 4.302 0 00-3.44 1.678v-5.333h-2.33v14.173zm2.33-3.081v-4.06c.511-.765 1.665-1.402 2.753-1.402 1.864 0 3.041 1.424 3.041 3.421 0 1.997-1.177 3.4-3.041 3.4-1.088 0-2.242-.595-2.752-1.36zm29.118 3.081h2.597V16.948h-3.662l-4.04 9.54-4.017-9.54h-3.662v14.173h2.597v-10.73l4.527 10.73h1.11l4.55-10.73v10.73zm12.229 0h2.33v-6.8c0-2.762-2.086-3.718-4.461-3.718-1.709 0-3.263.531-4.506 1.657l.955 1.551c.932-.87 1.975-1.296 3.174-1.296 1.487 0 2.508.723 2.508 1.913v1.53c-.777-.872-2.02-1.318-3.463-1.318-1.753 0-3.729.977-3.729 3.336 0 2.274 1.976 3.4 3.729 3.4 1.421 0 2.664-.489 3.463-1.36v1.105zm0-2.337c-.533.7-1.532 1.062-2.553 1.062-1.309 0-2.286-.722-2.286-1.827 0-1.127.977-1.849 2.286-1.849 1.021 0 2.02.361 2.553 1.062v1.552zm12.587 2.337h2.331v-7.225c0-2.103-1.155-3.293-3.463-3.293-1.687 0-3.063.85-3.773 1.657v-1.402h-2.33V31.12h2.33v-7.16c.533-.702 1.554-1.382 2.752-1.382 1.31 0 2.153.531 2.153 2.125v6.417zm11.905 0h2.331v-6.8c0-2.762-2.087-3.718-4.462-3.718-1.709 0-3.262.531-4.505 1.657l.954 1.551c.932-.87 1.976-1.296 3.174-1.296 1.487 0 2.508.723 2.508 1.913v1.53c-.777-.872-2.02-1.318-3.462-1.318-1.754 0-3.729.977-3.729 3.336 0 2.274 1.975 3.4 3.729 3.4 1.42 0 2.663-.489 3.462-1.36v1.105zm0-2.337c-.533.7-1.531 1.062-2.552 1.062-1.31 0-2.286-.722-2.286-1.827 0-1.127.976-1.849 2.286-1.849 1.021 0 2.019.361 2.552 1.062v1.552zM168 33.756c1.309 1.147 2.663 1.53 4.483 1.53 2.641 0 5.505-.999 5.505-4.696v-9.732h-2.331v1.424c-.866-1.084-2.086-1.68-3.44-1.68-2.752 0-4.75 1.956-4.75 5.27 0 3.38 2.02 5.27 4.75 5.27 1.398 0 2.619-.68 3.44-1.7v1.233c0 2.103-1.642 2.783-3.174 2.783-1.42 0-2.53-.36-3.396-1.317L168 33.756zm7.657-5.971c-.51.765-1.665 1.381-2.752 1.381-1.842 0-3.019-1.317-3.019-3.294 0-1.976 1.177-3.293 3.019-3.293 1.087 0 2.242.616 2.752 1.381v3.825zm4.685-1.806c0 3.25 2.397 5.397 5.615 5.397 1.709 0 3.285-.51 4.35-1.488l-1.065-1.466c-.754.723-1.997 1.127-3.041 1.127-2.019 0-3.24-1.275-3.418-2.826h8.279v-.532c0-3.23-2.064-5.588-5.282-5.588-3.174 0-5.438 2.4-5.438 5.376zm5.438-3.549c2.108 0 2.974 1.509 3.018 2.72h-6.037c.111-1.254 1.021-2.72 3.019-2.72zm7.582 8.691h2.331v-6.99c.466-.723 1.775-1.36 2.752-1.36.289 0 .533.02.732.063v-2.21c-1.398 0-2.685.765-3.484 1.742v-1.508h-2.331V31.12zm13.227-6.978a3.7 3.7 0 003.705-3.714 3.69 3.69 0 00-3.705-3.715 3.701 3.701 0 00-3.706 3.715 3.712 3.712 0 003.706 3.714zm0-6.92a3.192 3.192 0 013.198 3.206c0 1.77-1.433 3.223-3.198 3.223a3.222 3.222 0 01-3.216-3.223 3.196 3.196 0 013.216-3.207zm1.014 5.343h.699l-1.136-1.7c.244 0 1.083-.315 1.083-1.26 0-.79-.611-1.297-1.346-1.297h-1.73v4.257h.559v-1.682h.769l1.102 1.682zm-.7-3.767c.437 0 .769.333.769.806a.755.755 0 01-.769.771h-1.171v-1.577h1.171z" fill="#333"/><rect x="218" y="4" width="48" height="46.857" rx="8" fill="#fff"/><rect x="216.5" y="2.5" width="51" height="49.857" rx="9.5" stroke="#fff" stroke-opacity=".2" stroke-width="3"/><path d="M240.758 33.4a1.443 1.443 0 002.522-.003l4.858-8.762 7.016 12.323a1.443 1.443 0 002.508-1.428l-8.287-14.556a1.444 1.444 0 00-2.517.015l-4.844 8.74-4.879-8.744a1.443 1.443 0 00-2.52 0l-5.874 10.517.578 1.402.866 1.896 5.688-10.152 4.885 8.753z" fill="url(#paint2_linear)"/><path d="M228.248 34.413a15.117 15.117 0 01-.553-11.472 15.123 15.123 0 017.892-8.693c7.595-3.541 16.623-.255 20.165 7.34a1.443 1.443 0 102.616-1.22c-4.216-9.04-14.961-12.95-24-8.736a18.005 18.005 0 00-9.394 10.346 18.001 18.001 0 00.658 13.654c4.216 9.04 14.961 12.95 24 8.736.023-.01.044-.022.066-.033 2.375-1.258 4.132-2.477 5.284-3.69.226-.237.973-1.082.973-1.082s-.784-.165-1.402-.577c-.619-.412-.99-1.072-.99-1.072s-.479.539-.674.744c-.897.944-2.404 1.991-4.509 3.11-7.588 3.516-16.595.229-20.132-7.355z" fill="url(#paint3_linear)"/><path d="M280.947 31.376c3.108 0 4.928-1.488 6.06-3.187l-2.22-1.084c-.71 1.19-2.131 2.061-3.84 2.061-2.818 0-4.994-2.146-4.994-5.12 0-2.976 2.176-5.122 4.994-5.122 1.709 0 3.13.893 3.84 2.061l2.22-1.083c-1.11-1.7-2.952-3.188-6.06-3.188-4.261 0-7.657 2.975-7.657 7.331s3.396 7.33 7.657 7.33zm14.619-.255h2.33v-6.8c0-2.762-2.086-3.718-4.461-3.718-1.709 0-3.263.531-4.505 1.657l.954 1.551c.932-.87 1.975-1.296 3.174-1.296 1.487 0 2.508.723 2.508 1.913v1.53c-.777-.872-2.02-1.318-3.463-1.318-1.753 0-3.728.977-3.728 3.336 0 2.274 1.975 3.4 3.728 3.4 1.421 0 2.664-.489 3.463-1.36v1.105zm0-2.337c-.533.7-1.532 1.062-2.553 1.062-1.309 0-2.286-.722-2.286-1.827 0-1.127.977-1.849 2.286-1.849 1.021 0 2.02.361 2.553 1.062v1.552zm5.352 2.337h2.33v-6.99c.466-.723 1.776-1.36 2.752-1.36.289 0 .533.02.733.063v-2.21c-1.398 0-2.686.765-3.485 1.742v-1.508h-2.33V31.12zm7.694 0h2.331v-1.402a4.375 4.375 0 003.44 1.657c2.73 0 4.75-1.997 4.75-5.376 0-3.315-1.998-5.397-4.75-5.397a4.301 4.301 0 00-3.44 1.678v-5.333h-2.331v14.173zm2.331-3.081v-4.06c.51-.765 1.664-1.402 2.752-1.402 1.864 0 3.041 1.424 3.041 3.421 0 1.997-1.177 3.4-3.041 3.4-1.088 0-2.242-.595-2.752-1.36zm29.117 3.081h2.597V16.948h-3.662l-4.04 9.54-4.017-9.54h-3.662v14.173h2.597v-10.73l4.527 10.73h1.11l4.55-10.73v10.73zm12.229 0h2.33v-6.8c0-2.762-2.086-3.718-4.461-3.718-1.709 0-3.263.531-4.506 1.657l.955 1.551c.932-.87 1.975-1.296 3.174-1.296 1.487 0 2.508.723 2.508 1.913v1.53c-.777-.872-2.02-1.318-3.463-1.318-1.753 0-3.729.977-3.729 3.336 0 2.274 1.976 3.4 3.729 3.4 1.421 0 2.664-.489 3.463-1.36v1.105zm0-2.337c-.533.7-1.532 1.062-2.553 1.062-1.309 0-2.286-.722-2.286-1.827 0-1.127.977-1.849 2.286-1.849 1.021 0 2.02.361 2.553 1.062v1.552zm12.587 2.337h2.331v-7.225c0-2.103-1.155-3.293-3.463-3.293-1.687 0-3.063.85-3.773 1.657v-1.402h-2.33V31.12h2.33v-7.16c.533-.702 1.554-1.382 2.752-1.382 1.31 0 2.153.531 2.153 2.125v6.417zm11.905 0h2.331v-6.8c0-2.762-2.087-3.718-4.462-3.718-1.709 0-3.262.531-4.505 1.657l.954 1.551c.932-.87 1.976-1.296 3.174-1.296 1.487 0 2.508.723 2.508 1.913v1.53c-.777-.872-2.02-1.318-3.462-1.318-1.754 0-3.729.977-3.729 3.336 0 2.274 1.975 3.4 3.729 3.4 1.42 0 2.663-.489 3.462-1.36v1.105zm0-2.337c-.533.7-1.531 1.062-2.552 1.062-1.31 0-2.286-.722-2.286-1.827 0-1.127.976-1.849 2.286-1.849 1.021 0 2.019.361 2.552 1.062v1.552zM382 33.756c1.309 1.147 2.663 1.53 4.483 1.53 2.641 0 5.505-.999 5.505-4.696v-9.732h-2.331v1.424c-.866-1.084-2.086-1.68-3.44-1.68-2.752 0-4.75 1.956-4.75 5.27 0 3.38 2.02 5.27 4.75 5.27 1.398 0 2.619-.68 3.44-1.7v1.233c0 2.103-1.642 2.783-3.174 2.783-1.42 0-2.53-.36-3.396-1.317L382 33.756zm7.657-5.971c-.51.765-1.665 1.381-2.752 1.381-1.842 0-3.019-1.317-3.019-3.294 0-1.976 1.177-3.293 3.019-3.293 1.087 0 2.242.616 2.752 1.381v3.825zm4.685-1.806c0 3.25 2.397 5.397 5.615 5.397 1.709 0 3.285-.51 4.35-1.488l-1.065-1.466c-.754.723-1.997 1.127-3.041 1.127-2.019 0-3.24-1.275-3.418-2.826h8.279v-.532c0-3.23-2.064-5.588-5.282-5.588-3.174 0-5.438 2.4-5.438 5.376zm5.438-3.549c2.108 0 2.974 1.509 3.018 2.72h-6.037c.111-1.254 1.021-2.72 3.019-2.72zm7.582 8.691h2.331v-6.99c.466-.723 1.775-1.36 2.752-1.36.289 0 .533.02.732.063v-2.21c-1.398 0-2.685.765-3.484 1.742v-1.508h-2.331V31.12zm13.227-6.978a3.7 3.7 0 003.705-3.714 3.69 3.69 0 00-3.705-3.715 3.701 3.701 0 00-3.706 3.715 3.712 3.712 0 003.706 3.714zm0-6.92a3.192 3.192 0 013.198 3.206c0 1.77-1.433 3.223-3.198 3.223a3.222 3.222 0 01-3.216-3.223 3.196 3.196 0 013.216-3.207zm1.014 5.343h.699l-1.136-1.7c.244 0 1.083-.315 1.083-1.26 0-.79-.611-1.297-1.346-1.297h-1.73v4.257h.559v-1.682h.769l1.102 1.682zm-.7-3.767c.437 0 .769.333.769.806a.755.755 0 01-.769.771h-1.171v-1.577h1.171z" fill="#fff"/><defs><linearGradient id="paint0_linear" x1="15.165" y1="38.618" x2="38.746" y2="45.094" gradientUnits="userSpaceOnUse"><stop stop-color="#F9482D"/><stop offset="1" stop-color="#FDA021"/></linearGradient><linearGradient id="paint1_linear" x1="46.513" y1="46.708" x2="53.793" y2="23.734" gradientUnits="userSpaceOnUse"><stop stop-color="#13BF79"/><stop offset=".512" stop-color="#1BCB91"/><stop offset="1" stop-color="#0DC98D"/></linearGradient><linearGradient id="paint2_linear" x1="229.165" y1="38.618" x2="252.746" y2="45.094" gradientUnits="userSpaceOnUse"><stop stop-color="#F9482D"/><stop offset="1" stop-color="#FDA021"/></linearGradient><linearGradient id="paint3_linear" x1="260.513" y1="46.708" x2="267.793" y2="23.734" gradientUnits="userSpaceOnUse"><stop stop-color="#13BF79"/><stop offset=".512" stop-color="#1BCB91"/><stop offset="1" stop-color="#0DC98D"/></linearGradient></defs></svg>