<svg viewBox="0 0 70 70" fill="none" xmlns="http://www.w3.org/2000/svg"><circle cx="35" cy="35" r="35" fill="#1BC98E" fill-opacity=".1"/><path d="M46.667 22.334H45v-2.5a.834.834 0 00-.833-.834H42.5a.833.833 0 00-.833.833v2.5H28.333v-2.499a.833.833 0 00-.833-.833h-1.667a.833.833 0 00-.833.833v2.5h-1.667A3.333 3.333 0 0020 25.668v21.665a3.334 3.334 0 003.333 3.334h23.334A3.333 3.333 0 0050 47.334V25.667a3.334 3.334 0 00-3.333-3.334v.001zm0 25H23.333V28.999h23.334v18.335zm-14.017-5.25a.8.8 0 001.167 0l7.083-7.067a.85.85 0 000-1.183l-.9-.884a.85.85 0 00-1.183 0l-5.6 5.6-2.05-2.067a.85.85 0 00-1.184 0l-.883.85a.833.833 0 000 1.168l3.55 3.582v.001z" fill="#1BC98E"/></svg>