<svg fill="none" xmlns="http://www.w3.org/2000/svg" viewBox="0 0 364 728"><g filter="url(#filter0_i)" fill-rule="evenodd" clip-rule="evenodd"><path d="M362.315 64.81c0-41.167-22.003-63.127-63.223-63.127H65.751c-41.22 0-63.223 21.96-63.223 63.126v45.026c.842 1.868.842 9.254.842 9.254v11.362a93.984 93.984 0 00-.18 2.704c-.128 2.243-.255 4.457-.662 5.327v26.138c.405.19.715.732.811 1.994h.031v48.436c0 1.636-.351 2.513-.842 2.811v16.613c.405.19.715.732.811 1.995h.031v48.435c0 1.636-.351 2.513-.842 2.811v377.164c0 41.156 22 63.121 63.223 63.121h95.074c.947-.503 2.717-.842 4.744-.842.142 0 .283.002.422 0l33.703.005c1.85.044 3.442.369 4.323.837h95.075c41.222 0 63.223-21.97 63.223-63.126V270.786c-.259-.275-.48-.795-.63-1.468l-.213-2.525v-78.691h.032c.096-1.273.406-2.302.811-2.73V64.809z" fill="url(#paint0_linear)"/><path d="M362.315 64.81c0-41.167-22.003-63.127-63.223-63.127H65.751c-41.22 0-63.223 21.96-63.223 63.126v45.026c.842 1.868.842 9.254.842 9.254v11.362a93.984 93.984 0 00-.18 2.704c-.128 2.243-.255 4.457-.662 5.327v26.138c.405.19.715.732.811 1.994h.031v48.436c0 1.636-.351 2.513-.842 2.811v16.613c.405.19.715.732.811 1.995h.031v48.435c0 1.636-.351 2.513-.842 2.811v377.164c0 41.156 22 63.121 63.223 63.121h95.074c.947-.503 2.717-.842 4.744-.842.142 0 .283.002.422 0l33.703.005c1.85.044 3.442.369 4.323.837h95.075c41.222 0 63.223-21.97 63.223-63.126V270.786c-.259-.275-.48-.795-.63-1.468l-.213-2.525v-78.691h.032c.096-1.273.406-2.302.811-2.73V64.809z" fill="url(#paint1_linear)"/></g><g filter="url(#filter1_ii)"><path fill-rule="evenodd" clip-rule="evenodd" d="M294.97 7.575c41.748 0 61.447 17.185 61.447 58.913v598.391c0 41.718-19.697 58.071-61.447 58.071H69.872c-41.75 0-62.289-16.353-62.289-58.071V66.488c0-41.728 20.542-58.913 62.29-58.913H294.97z" fill="url(#paint2_linear)"/></g><path clip-rule="evenodd" d="M294.97 7.575c41.748 0 61.447 17.185 61.447 58.913v598.391c0 41.718-19.697 58.071-61.447 58.071H69.872c-41.75 0-62.289-16.353-62.289-58.071V66.488c0-41.728 20.542-58.913 62.29-58.913H294.97z" stroke="url(#paint3_linear)" stroke-width=".5"/><g filter="url(#filter2_ii)" fill-rule="evenodd" clip-rule="evenodd"><path d="M295.312 10.1c41.753 0 57.734 16.822 57.734 58.592v593.141c0 41.761-15.979 57.751-59.419 57.751H69.53c-40.912 0-58.576-15.99-58.576-56.91V68.692c0-41.77 16.824-58.593 58.576-58.593h225.782z" fill="url(#paint4_linear)"/><path d="M295.312 10.1c41.753 0 57.734 16.822 57.734 58.592v593.141c0 41.761-15.979 57.751-59.419 57.751H69.53c-40.912 0-58.576-15.99-58.576-56.91V68.692c0-41.77 16.824-58.593 58.576-58.593h225.782z" fill="url(#paint5_linear)"/></g><g filter="url(#filter3_di)"><path fill-rule="evenodd" clip-rule="evenodd" d="M361.051 191.495c.059-2.462.448-4.33.695-5.049 1.964.478 2.254.336 2.254.336v81.912s-.613.925-2.254 1.145c-.223-.263-.547-.99-.695-4.624 0-3.366-.059-71.257 0-73.72z" fill="url(#paint6_linear)"/></g><mask id="a" maskUnits="userSpaceOnUse" x="361" y="186" width="3" height="84"><path fill-rule="evenodd" clip-rule="evenodd" d="M361.051 191.495c.059-2.462.448-4.33.695-5.049 1.964.478 2.254.336 2.254.336v81.912s-.613.925-2.254 1.145c-.223-.263-.547-.99-.695-4.624 0-3.366-.059-71.257 0-73.72z" fill="#fff"/></mask><g mask="url(#a)"><path fill-rule="evenodd" clip-rule="evenodd" d="M365.495 185.156s-2.076-.266-2.338 5.891v71.397c0 6.957 2.021 7.329 2.338 7.715l.19-1.217c-1.168-1.736-1.359-3.854-1.359-7.157v-67.402c0-3.939.845-7.761 1.169-7.745v-1.482z" fill="#F7FAFF"/></g><g filter="url(#filter4_di)"><path fill-rule="evenodd" clip-rule="evenodd" d="M3.792 240.309c-.06-2.463 0-4.204-.718-5.163-.693.097-1.437.247-2.231.45v50.772c.343.22 1.087.524 2.231.911.436-.659.57-.756.718-4.39 0-3.367.06-40.117 0-42.58z" fill="url(#paint7_linear)"/></g><mask id="b" maskUnits="userSpaceOnUse" x="0" y="235" width="4" height="53"><path fill-rule="evenodd" clip-rule="evenodd" d="M3.792 240.309c-.06-2.463 0-4.204-.718-5.163-.693.097-1.437.247-2.231.45v50.772c.343.22 1.087.524 2.231.911.436-.659.57-.756.718-4.39 0-3.367.06-40.117 0-42.58z" fill="#fff"/></mask><g mask="url(#b)"><path fill-rule="evenodd" clip-rule="evenodd" d="M-.652 233.97s2.075-.267 2.337 5.891v40.257c0 6.957-2.02 7.329-2.337 7.715l-.19-1.217c1.168-1.736 1.359-3.854 1.359-7.157v-36.262c0-3.94-.845-7.762-1.169-7.745v-1.482z" fill="#D0D5DA"/></g><g filter="url(#filter5_di)"><path fill-rule="evenodd" clip-rule="evenodd" d="M3.792 170.455c-.06-2.463-.279-4.941-.692-5.268a16.36 16.36 0 00-2.257.555v50.771c.112.343.83.635 2.15.876.464-.55.799-1.31.799-4.354 0-3.367.06-40.118 0-42.58z" fill="url(#paint8_linear)"/></g><mask id="c" maskUnits="userSpaceOnUse" x="0" y="165" width="4" height="53"><path fill-rule="evenodd" clip-rule="evenodd" d="M3.792 170.455c-.06-2.463-.279-4.941-.692-5.268a16.36 16.36 0 00-2.257.555v50.771c.112.343.83.635 2.15.876.464-.55.799-1.31.799-4.354 0-3.367.06-40.118 0-42.58z" fill="#fff"/></mask><g mask="url(#c)"><path fill-rule="evenodd" clip-rule="evenodd" d="M-.652 164.116s2.075-.267 2.337 5.891v40.257c0 6.957-2.02 7.329-2.337 7.715l-.19-1.217c1.168-1.737 1.359-3.854 1.359-7.157v-36.262c0-3.94-.845-7.762-1.169-7.745v-1.482z" fill="#D0D5DA"/></g><g filter="url(#filter6_di)" fill-rule="evenodd" clip-rule="evenodd"><path d="M3.37 113.619c0-2.012-.51-3.367-.51-3.367H.788l-.787.784v25.524l.84.916 2.02.005s.51-2.145.51-4.505v-19.357z" fill="url(#paint9_linear)"/><path d="M3.37 113.619c0-2.012-.51-3.367-.51-3.367H.788l-.787.784v25.524l.84.916 2.02.005s.51-2.145.51-4.505v-19.357z" fill="url(#paint10_linear)"/></g><mask id="d" maskUnits="userSpaceOnUse" x="0" y="110" width="4" height="28"><path fill-rule="evenodd" clip-rule="evenodd" d="M3.37 113.619c0-2.012-.51-3.367-.51-3.367H.788l-.787.784v25.524l.84.916 2.02.005s.51-2.145.51-4.505v-19.357z" fill="#fff"/><path fill-rule="evenodd" clip-rule="evenodd" d="M3.37 113.619c0-2.012-.51-3.367-.51-3.367H.788l-.787.784v25.524l.84.916 2.02.005s.51-2.145.51-4.505v-19.357z" stroke="#fff"/></mask><g mask="url(#d)"><path fill-rule="evenodd" clip-rule="evenodd" d="M0 108.569c-.138 0 1.264 1.52 1.264 5.294v18.681c0 5.955-1.32 5.733-1.548 6.124l-.137-1.232c.842-1.757.842-3.642.842-5.302v-16.832c0-2.388-.471-5.25-.705-5.233l.284-1.5z" fill="url(#paint11_linear)" fill-opacity=".2"/></g><g filter="url(#filter7_ddi)"><path fill-rule="evenodd" clip-rule="evenodd" d="M163.038 27.773a2.945 2.945 0 000 5.892h37.924a2.945 2.945 0 000-5.892h-37.924z" fill="#F4F4F4"/><path d="M160.343 30.72a2.695 2.695 0 012.695-2.697h37.924a2.695 2.695 0 110 5.392h-37.924a2.695 2.695 0 01-2.695-2.696z" stroke="url(#paint12_linear)" stroke-width=".5"/></g><g filter="url(#filter8_i)"><path fill-rule="evenodd" clip-rule="evenodd" d="M225.619 32.111a5.056 5.056 0 00-9.719-2.784 5.048 5.048 0 003.466 6.246 5.056 5.056 0 006.253-3.462z" fill="url(#paint13_linear)"/></g><g filter="url(#filter9_i)"><path fill-rule="evenodd" clip-rule="evenodd" d="M223.999 31.647a3.366 3.366 0 00-2.311-4.164 3.366 3.366 0 10-1.858 6.472 3.37 3.37 0 004.169-2.308z" fill="url(#paint14_radial)"/></g><defs><linearGradient id="paint0_linear" x1="2.528" y1="728" x2="362.315" y2="728" gradientUnits="userSpaceOnUse"><stop stop-color="#CFD3D8"/><stop offset=".126" stop-color="#ECEDF0"/><stop offset=".933" stop-color="#F0F1F2"/><stop offset="1" stop-color="#FBFEFF"/></linearGradient><linearGradient id="paint1_linear" x1="146.792" y1="584.146" x2="146.792" y2="728" gradientUnits="userSpaceOnUse"><stop stop-color="#fff" stop-opacity=".5"/><stop offset="1" stop-color="#D0D5DA"/></linearGradient><linearGradient id="paint2_linear" x1="7.583" y1="722.95" x2="356.417" y2="722.95" gradientUnits="userSpaceOnUse"><stop stop-color="#D9D9D9"/><stop offset=".204" stop-color="#EDF1F4" stop-opacity=".01"/><stop offset=".903" stop-color="#EEF1F4" stop-opacity=".01"/><stop offset="1" stop-color="#fff"/></linearGradient><linearGradient id="paint3_linear" x1="7.583" y1="722.95" x2="356.417" y2="722.95" gradientUnits="userSpaceOnUse"><stop stop-color="#fff" stop-opacity=".5"/><stop offset=".066" stop-opacity=".05"/><stop offset=".949" stop-opacity=".05"/><stop offset="1" stop-opacity=".1"/></linearGradient><linearGradient id="paint4_linear" x1="10.954" y1="719.584" x2="353.046" y2="719.584" gradientUnits="userSpaceOnUse"><stop stop-color="#ECEDF0"/><stop offset="1" stop-color="#F8F8F8"/></linearGradient><linearGradient id="paint5_linear" x1="157.297" y1="617.12" x2="157.297" y2="719.584" gradientUnits="userSpaceOnUse"><stop stop-color="#E3E6EB" stop-opacity=".01"/><stop offset="1" stop-color="#E3E6EB"/></linearGradient><linearGradient id="paint6_linear" x1="361.071" y1="187.863" x2="361.071" y2="268.64" gradientUnits="userSpaceOnUse"><stop stop-color="#B1B8C2"/><stop offset=".052" stop-color="#ECEEF1"/><stop offset=".921" stop-color="#EDEEF1"/><stop offset="1" stop-color="#B1B8C2"/></linearGradient><linearGradient id="paint7_linear" x1=".889" y1="236.032" x2=".889" y2="286.529" gradientUnits="userSpaceOnUse"><stop stop-color="#B1B8C2"/><stop offset=".052" stop-color="#ECEEF1"/><stop offset=".921" stop-color="#EDEEF1"/><stop offset="1" stop-color="#B1B8C2"/></linearGradient><linearGradient id="paint8_linear" x1=".889" y1="166.074" x2=".889" y2="216.639" gradientUnits="userSpaceOnUse"><stop stop-color="#B1B8C2"/><stop offset=".052" stop-color="#ECEEF1"/><stop offset=".921" stop-color="#EDEEF1"/><stop offset="1" stop-color="#B1B8C2"/></linearGradient><linearGradient id="paint9_linear" x1=".053" y1="110.715" x2=".053" y2="137.089" gradientUnits="userSpaceOnUse"><stop stop-color="#B1B8C2"/><stop offset=".052" stop-color="#ECEEF1"/><stop offset=".921" stop-color="#EDEEF1"/><stop offset="1" stop-color="#B1B8C2"/></linearGradient><linearGradient id="paint10_linear" x1="0" y1="137.481" x2="3.37" y2="137.481" gradientUnits="userSpaceOnUse"><stop stop-color="#D0D5DA" stop-opacity=".01"/><stop offset=".684" stop-color="#D0D4D9" stop-opacity=".01"/><stop offset="1" stop-color="#D0D4D9"/></linearGradient><linearGradient id="paint11_linear" x1="-.281" y1="111.132" x2="-.281" y2="136.237" gradientUnits="userSpaceOnUse"><stop stop-color="#111"/><stop offset=".154" stop-color="#FEFEFE"/><stop offset=".831" stop-color="#FEFEFE"/><stop offset="1" stop-color="#1D1D1D"/></linearGradient><linearGradient id="paint12_linear" x1="203.907" y1="33.665" x2="203.907" y2="27.773" gradientUnits="userSpaceOnUse"><stop stop-color="#fff" stop-opacity=".2"/><stop offset="1" stop-opacity=".3"/></linearGradient><linearGradient id="paint13_linear" x1="228.05" y1="30.282" x2="220.469" y2="24.294" gradientUnits="userSpaceOnUse"><stop stop-color="#F5F9FC"/><stop offset="1" stop-color="#EAEAEA"/></linearGradient><filter id="filter0_i" x="2.528" y="1.683" width="359.787" height="726.317" filterUnits="userSpaceOnUse" color-interpolation-filters="sRGB"><feFlood flood-opacity="0" result="BackgroundImageFix"/><feBlend in="SourceGraphic" in2="BackgroundImageFix" result="shape"/><feColorMatrix in="SourceAlpha" values="0 0 0 0 0 0 0 0 0 0 0 0 0 0 0 0 0 0 127 0" result="hardAlpha"/><feOffset/><feGaussianBlur stdDeviation="1.5"/><feComposite in2="hardAlpha" operator="arithmetic" k2="-1" k3="1"/><feColorMatrix values="0 0 0 0 0 0 0 0 0 0 0 0 0 0 0 0 0 0 0.1 0"/><feBlend in2="shape" result="effect1_innerShadow"/></filter><filter id="filter1_ii" x="6.333" y="7.325" width="351.333" height="715.876" filterUnits="userSpaceOnUse" color-interpolation-filters="sRGB"><feFlood flood-opacity="0" result="BackgroundImageFix"/><feBlend in="SourceGraphic" in2="BackgroundImageFix" result="shape"/><feColorMatrix in="SourceAlpha" values="0 0 0 0 0 0 0 0 0 0 0 0 0 0 0 0 0 0 127 0" result="hardAlpha"/><feOffset dx="1"/><feGaussianBlur stdDeviation="1"/><feComposite in2="hardAlpha" operator="arithmetic" k2="-1" k3="1"/><feColorMatrix values="0 0 0 0 0 0 0 0 0 0 0 0 0 0 0 0 0 0 0.15666 0"/><feBlend in2="shape" result="effect1_innerShadow"/><feColorMatrix in="SourceAlpha" values="0 0 0 0 0 0 0 0 0 0 0 0 0 0 0 0 0 0 127 0" result="hardAlpha"/><feOffset dx="-1"/><feGaussianBlur stdDeviation="1"/><feComposite in2="hardAlpha" operator="arithmetic" k2="-1" k3="1"/><feColorMatrix values="0 0 0 0 0 0 0 0 0 0 0 0 0 0 0 0 0 0 0.05 0"/><feBlend in2="effect1_innerShadow" result="effect2_innerShadow"/></filter><filter id="filter2_ii" x="10.954" y="10.099" width="345.093" height="711.484" filterUnits="userSpaceOnUse" color-interpolation-filters="sRGB"><feFlood flood-opacity="0" result="BackgroundImageFix"/><feBlend in="SourceGraphic" in2="BackgroundImageFix" result="shape"/><feColorMatrix in="SourceAlpha" values="0 0 0 0 0 0 0 0 0 0 0 0 0 0 0 0 0 0 127 0" result="hardAlpha"/><feOffset dy="2"/><feGaussianBlur stdDeviation="3"/><feComposite in2="hardAlpha" operator="arithmetic" k2="-1" k3="1"/><feColorMatrix values="0 0 0 0 1 0 0 0 0 1 0 0 0 0 1 0 0 0 0.794307 0"/><feBlend in2="shape" result="effect1_innerShadow"/><feColorMatrix in="SourceAlpha" values="0 0 0 0 0 0 0 0 0 0 0 0 0 0 0 0 0 0 127 0" result="hardAlpha"/><feOffset dx="3"/><feGaussianBlur stdDeviation="3"/><feComposite in2="hardAlpha" operator="arithmetic" k2="-1" k3="1"/><feColorMatrix values="0 0 0 0 0 0 0 0 0 0 0 0 0 0 0 0 0 0 0.100579 0"/><feBlend in2="effect1_innerShadow" result="effect2_innerShadow"/></filter><filter id="filter3_di" x="360.825" y="186.446" width="3.675" height="83.393" filterUnits="userSpaceOnUse" color-interpolation-filters="sRGB"><feFlood flood-opacity="0" result="BackgroundImageFix"/><feColorMatrix in="SourceAlpha" values="0 0 0 0 0 0 0 0 0 0 0 0 0 0 0 0 0 0 127 0"/><feOffset dx="-.2"/><feColorMatrix values="0 0 0 0 0 0 0 0 0 0 0 0 0 0 0 0 0 0 0.3 0"/><feBlend in2="BackgroundImageFix" result="effect1_dropShadow"/><feBlend in="SourceGraphic" in2="effect1_dropShadow" result="shape"/><feColorMatrix in="SourceAlpha" values="0 0 0 0 0 0 0 0 0 0 0 0 0 0 0 0 0 0 127 0" result="hardAlpha"/><feOffset dx=".5"/><feGaussianBlur stdDeviation=".5"/><feComposite in2="hardAlpha" operator="arithmetic" k2="-1" k3="1"/><feColorMatrix values="0 0 0 0 0 0 0 0 0 0 0 0 0 0 0 0 0 0 0.100934 0"/><feBlend in2="shape" result="effect2_innerShadow"/></filter><filter id="filter4_di" x=".343" y="235.146" width="3.675" height="52.133" filterUnits="userSpaceOnUse" color-interpolation-filters="sRGB"><feFlood flood-opacity="0" result="BackgroundImageFix"/><feColorMatrix in="SourceAlpha" values="0 0 0 0 0 0 0 0 0 0 0 0 0 0 0 0 0 0 127 0"/><feOffset dx=".2"/><feColorMatrix values="0 0 0 0 0 0 0 0 0 0 0 0 0 0 0 0 0 0 0.3 0"/><feBlend in2="BackgroundImageFix" result="effect1_dropShadow"/><feBlend in="SourceGraphic" in2="effect1_dropShadow" result="shape"/><feColorMatrix in="SourceAlpha" values="0 0 0 0 0 0 0 0 0 0 0 0 0 0 0 0 0 0 127 0" result="hardAlpha"/><feOffset dx="-.5"/><feGaussianBlur stdDeviation=".5"/><feComposite in2="hardAlpha" operator="arithmetic" k2="-1" k3="1"/><feColorMatrix values="0 0 0 0 0 0 0 0 0 0 0 0 0 0 0 0 0 0 0.0963724 0"/><feBlend in2="shape" result="effect2_innerShadow"/></filter><filter id="filter5_di" x=".343" y="165.187" width="3.675" height="52.202" filterUnits="userSpaceOnUse" color-interpolation-filters="sRGB"><feFlood flood-opacity="0" result="BackgroundImageFix"/><feColorMatrix in="SourceAlpha" values="0 0 0 0 0 0 0 0 0 0 0 0 0 0 0 0 0 0 127 0"/><feOffset dx=".2"/><feColorMatrix values="0 0 0 0 0 0 0 0 0 0 0 0 0 0 0 0 0 0 0.3 0"/><feBlend in2="BackgroundImageFix" result="effect1_dropShadow"/><feBlend in="SourceGraphic" in2="effect1_dropShadow" result="shape"/><feColorMatrix in="SourceAlpha" values="0 0 0 0 0 0 0 0 0 0 0 0 0 0 0 0 0 0 127 0" result="hardAlpha"/><feOffset dx="-.5"/><feGaussianBlur stdDeviation=".5"/><feComposite in2="hardAlpha" operator="arithmetic" k2="-1" k3="1"/><feColorMatrix values="0 0 0 0 0 0 0 0 0 0 0 0 0 0 0 0 0 0 0.100716 0"/><feBlend in2="shape" result="effect2_innerShadow"/></filter><filter id="filter6_di" x="-.5" y="110.252" width="4.07" height="27.229" filterUnits="userSpaceOnUse" color-interpolation-filters="sRGB"><feFlood flood-opacity="0" result="BackgroundImageFix"/><feColorMatrix in="SourceAlpha" values="0 0 0 0 0 0 0 0 0 0 0 0 0 0 0 0 0 0 127 0"/><feOffset dx=".2"/><feColorMatrix values="0 0 0 0 0 0 0 0 0 0 0 0 0 0 0 0 0 0 0.3 0"/><feBlend in2="BackgroundImageFix" result="effect1_dropShadow"/><feBlend in="SourceGraphic" in2="effect1_dropShadow" result="shape"/><feColorMatrix in="SourceAlpha" values="0 0 0 0 0 0 0 0 0 0 0 0 0 0 0 0 0 0 127 0" result="hardAlpha"/><feOffset dx="-.5"/><feGaussianBlur stdDeviation=".5"/><feComposite in2="hardAlpha" operator="arithmetic" k2="-1" k3="1"/><feColorMatrix values="0 0 0 0 0 0 0 0 0 0 0 0 0 0 0 0 0 0 0.5 0"/><feBlend in2="shape" result="effect2_innerShadow"/></filter><filter id="filter7_ddi" x="159.593" y="27.273" width="44.815" height="6.891" filterUnits="userSpaceOnUse" color-interpolation-filters="sRGB"><feFlood flood-opacity="0" result="BackgroundImageFix"/><feColorMatrix in="SourceAlpha" values="0 0 0 0 0 0 0 0 0 0 0 0 0 0 0 0 0 0 127 0"/><feOffset dx="-.5" dy=".5"/><feColorMatrix values="0 0 0 0 1 0 0 0 0 1 0 0 0 0 1 0 0 0 0.5 0"/><feBlend in2="BackgroundImageFix" result="effect1_dropShadow"/><feColorMatrix in="SourceAlpha" values="0 0 0 0 0 0 0 0 0 0 0 0 0 0 0 0 0 0 127 0"/><feOffset dx=".5" dy="-.5"/><feColorMatrix values="0 0 0 0 0 0 0 0 0 0 0 0 0 0 0 0 0 0 0.152262 0"/><feBlend in2="effect1_dropShadow" result="effect2_dropShadow"/><feBlend in="SourceGraphic" in2="effect2_dropShadow" result="shape"/><feColorMatrix in="SourceAlpha" values="0 0 0 0 0 0 0 0 0 0 0 0 0 0 0 0 0 0 127 0" result="hardAlpha"/><feOffset dy=".5"/><feGaussianBlur stdDeviation=".5"/><feComposite in2="hardAlpha" operator="arithmetic" k2="-1" k3="1"/><feColorMatrix values="0 0 0 0 0 0 0 0 0 0 0 0 0 0 0 0 0 0 0.151524 0"/><feBlend in2="shape" result="effect3_innerShadow"/></filter><filter id="filter8_i" x="215.702" y="25.668" width="10.114" height="10.602" filterUnits="userSpaceOnUse" color-interpolation-filters="sRGB"><feFlood flood-opacity="0" result="BackgroundImageFix"/><feBlend in="SourceGraphic" in2="BackgroundImageFix" result="shape"/><feColorMatrix in="SourceAlpha" values="0 0 0 0 0 0 0 0 0 0 0 0 0 0 0 0 0 0 127 0" result="hardAlpha"/><feOffset dy=".5"/><feGaussianBlur stdDeviation=".5"/><feComposite in2="hardAlpha" operator="arithmetic" k2="-1" k3="1"/><feColorMatrix values="0 0 0 0 0 0 0 0 0 0 0 0 0 0 0 0 0 0 0.149858 0"/><feBlend in2="shape" result="effect1_innerShadow"/></filter><filter id="filter9_i" x="217.388" y="27.352" width="6.742" height="6.735" filterUnits="userSpaceOnUse" color-interpolation-filters="sRGB"><feFlood flood-opacity="0" result="BackgroundImageFix"/><feBlend in="SourceGraphic" in2="BackgroundImageFix" result="shape"/><feColorMatrix in="SourceAlpha" values="0 0 0 0 0 0 0 0 0 0 0 0 0 0 0 0 0 0 127 0" result="hardAlpha"/><feOffset/><feGaussianBlur stdDeviation="1"/><feComposite in2="hardAlpha" operator="arithmetic" k2="-1" k3="1"/><feColorMatrix values="0 0 0 0 0 0 0 0 0 0 0 0 0 0 0 0 0 0 0.101508 0"/><feBlend in2="shape" result="effect1_innerShadow"/></filter><radialGradient id="paint14_radial" cx="0" cy="0" r="1" gradientUnits="userSpaceOnUse" gradientTransform="rotate(15.982 7.385 799.473) scale(4.54871 4.54424)"><stop stop-color="#fff"/><stop offset="1" stop-color="#DBDBDC"/></radialGradient></defs></svg>