<svg viewBox="0 0 70 70" fill="none" xmlns="http://www.w3.org/2000/svg"><path d="M41.334 18h-20A3.334 3.334 0 0018 21.333v26.668a3.333 3.333 0 003.334 3.332h20a3.333 3.333 0 003.333-3.332V21.333A3.333 3.333 0 0041.334 18zm-10 15.833a.833.833 0 01-1.3.7L26.8 32.368a.866.866 0 00-.933 0l-3.233 2.165a.834.834 0 01-1.3-.7V22.169a.834.834 0 01.833-.835H30.5a.834.834 0 01.834.835v11.665-.001zm18.333-12.5H48v26.668h1.667a1.668 1.668 0 001.667-1.668V23.001a1.667 1.667 0 00-1.667-1.668z" fill="#FDA120"/><circle cx="35" cy="35" r="35" fill="#FDA120" fill-opacity=".1"/></svg>