<svg viewBox="0 0 52 26" fill="none" xmlns="http://www.w3.org/2000/svg"><path d="M26.725 8.264a.602.602 0 01.445-.379.64.64 0 01.535 0l1.163.666a.64.64 0 01.288.797 10.91 10.91 0 00-.484 1.843.653.653 0 01-.64.548h-1.307a.68.68 0 01-.575-.117.679.679 0 01-.143-.523c.124-.97.366-1.922.718-2.835zm2.065-3.567a.628.628 0 00-.13.523.613.613 0 00.313.444l1.162.732a.627.627 0 00.823-.144c.37-.447.781-.859 1.229-1.228a.628.628 0 00.209-.889l-.667-1.162a.614.614 0 00-.444-.314.627.627 0 00-.523.13 11.97 11.97 0 00-1.972 1.908zm5.8-1.881a.654.654 0 00.798.287 10.909 10.909 0 011.842-.483.653.653 0 00.549-.64V.673a.68.68 0 00-.157-.522.68.68 0 00-.523-.144c-.948.13-1.878.37-2.77.718a.6.6 0 00-.379.392.64.64 0 000 .536l.64 1.163zm6.233-2.81a.653.653 0 00-.745.654v1.307a.653.653 0 00.536.653A10.452 10.452 0 1128.62 14.614a.654.654 0 00-.653-.536H26.66a.655.655 0 00-.653.745A13.065 13.065 0 1040.823.007zm-9.08 11.76a.653.653 0 00-.654.653v.993a.653.653 0 00.653.653h7.683a.667.667 0 00.653-.653v-7.67a.653.653 0 00-.653-.653h-.993a.653.653 0 00-.653.653v6.036l-6.037-.013z" fill="#1CA677"/><path d="M.725 8.264a.601.601 0 01.445-.379.64.64 0 01.535 0l1.163.666a.64.64 0 01.288.797 10.91 10.91 0 00-.484 1.843.653.653 0 01-.64.548H.725a.68.68 0 01-.574-.117.679.679 0 01-.144-.523c.124-.97.366-1.922.718-2.835zM2.79 4.697a.627.627 0 00-.13.523.614.614 0 00.313.444l1.162.732a.627.627 0 00.824-.144c.369-.447.78-.859 1.228-1.228a.627.627 0 00.209-.889l-.667-1.162a.614.614 0 00-.444-.314.627.627 0 00-.522.13A11.968 11.968 0 002.79 4.698zm5.8-1.881a.653.653 0 00.798.287 10.906 10.906 0 011.842-.483.653.653 0 00.549-.64V.673a.68.68 0 00-.157-.522.68.68 0 00-.523-.144c-.948.13-1.878.37-2.77.718a.601.601 0 00-.379.392.64.64 0 000 .536l.64 1.163zm6.233-2.81a.653.653 0 00-.745.654v1.307a.653.653 0 00.536.653A10.452 10.452 0 112.62 14.614a.653.653 0 00-.653-.536H.66a.655.655 0 00-.653.745A13.065 13.065 0 1014.823.007zm-9.08 11.76a.653.653 0 00-.654.653v.993a.653.653 0 00.653.653h7.683a.667.667 0 00.653-.653v-7.67a.653.653 0 00-.653-.653h-.993a.653.653 0 00-.653.653v6.036l-6.037-.013z" fill="#fff"/></svg>