<svg fill="none" xmlns="http://www.w3.org/2000/svg" viewBox="0 0 1028 759"><g opacity=".5" stroke="#fff"><path opacity=".35" d="M913.815 283.189c31.48 6.603 50.613 22.012 59.775 43.095 9.175 21.113 8.394 48.01-.178 77.653-17.144 59.283-65.376 129.287-126.61 185.225-61.237 55.941-135.386 97.73-204.311 100.716-34.449 1.493-67.593-6.706-97.19-27.677-29.601-20.974-55.689-54.747-75.975-104.459-12.236-29.981-28.781-47.149-48.419-54.642-19.625-7.488-42.234-5.275-66.516 3.279-48.548 17.102-104.068 59.652-156.453 101.53a9224.57 9224.57 0 00-16.108 12.917c-20.505 16.466-40.356 32.408-58.937 46.208-23.416 17.391-44.773 31.35-62.836 38.661-18.083 7.32-32.68 7.91-42.774-1.114-10.144-9.068-15.94-27.995-15.94-60.274 0-129.075 41.533-290.03 115.34-418.705C190.499 96.909 296.508.647 425.402.647c64.574 0 92.502 10.395 106.904 27.603 7.209 8.614 11.07 18.98 14.409 30.747.995 3.506 1.944 7.14 2.923 10.886 2.298 8.798 4.759 18.216 8.355 28.066 10.28 28.152 29.86 59.922 81.579 91.926 51.697 31.989 135.505 64.212 274.243 93.314z"/><path opacity=".35" d="M937.24 306.613c31.48 6.603 50.613 22.012 59.775 43.095 9.175 21.113 8.395 48.01-.179 77.653-17.144 59.283-65.376 129.287-126.609 185.225-61.238 55.941-135.387 97.73-204.312 100.716-34.449 1.493-67.592-6.706-97.189-27.677-29.602-20.974-55.689-54.747-75.976-104.459-12.235-29.981-28.781-47.149-48.419-54.642-19.625-7.488-42.233-5.275-66.516 3.279-48.547 17.102-104.067 59.652-156.453 101.531a8781.159 8781.159 0 00-16.108 12.916c-20.504 16.466-40.356 32.408-58.937 46.208-23.415 17.391-44.773 31.35-62.835 38.661-18.083 7.32-32.68 7.91-42.775-1.113-10.144-9.069-15.94-27.996-15.94-60.275 0-129.075 41.533-290.029 115.34-418.705 73.817-128.693 179.825-224.955 308.72-224.955 64.574 0 92.502 10.395 106.903 27.603 7.21 8.614 11.07 18.98 14.409 30.747.995 3.506 1.944 7.14 2.923 10.886 2.298 8.798 4.759 18.216 8.356 28.066 10.279 28.152 29.859 59.923 81.579 91.926 51.696 31.989 135.504 64.212 274.243 93.314z"/><path opacity=".35" d="M960.663 330.037c31.48 6.603 50.617 22.012 59.777 43.095 9.17 21.113 8.39 48.01-.18 77.653-17.14 59.283-65.376 129.287-126.61 185.224-61.238 55.942-135.386 97.731-204.311 100.717-34.449 1.493-67.593-6.706-97.19-27.677-29.602-20.974-55.689-54.747-75.976-104.459-12.235-29.981-28.781-47.149-48.419-54.642-19.624-7.488-42.233-5.275-66.516 3.279-48.547 17.102-104.067 59.652-156.453 101.53a9224.57 9224.57 0 00-16.108 12.917c-20.504 16.466-40.356 32.408-58.937 46.208-23.415 17.391-44.773 31.35-62.835 38.661-18.083 7.32-32.68 7.91-42.775-1.114-10.144-9.068-15.94-27.995-15.94-60.274 0-129.075 41.534-290.03 115.34-418.705C237.347 143.757 343.355 47.495 472.25 47.495c64.574 0 92.502 10.395 106.903 27.603 7.21 8.614 11.07 18.98 14.409 30.747.995 3.506 1.945 7.14 2.923 10.886 2.299 8.798 4.759 18.216 8.356 28.066 10.279 28.152 29.86 59.922 81.579 91.926 51.696 31.989 135.504 64.212 274.243 93.314z"/></g></svg>