<svg viewBox="0 0 70 70" fill="none" xmlns="http://www.w3.org/2000/svg"><circle cx="35" cy="35" r="35" fill="#3177BB" fill-opacity=".1"/><path opacity=".3" fill-rule="evenodd" clip-rule="evenodd" d="M51.334 34.667C51.334 25.462 43.872 18 34.667 18 25.462 18 18 25.462 18 34.667c0 9.205 7.462 16.667 16.667 16.667 9.205 0 16.667-7.462 16.667-16.667z" fill="#3177BB"/><path fill-rule="evenodd" clip-rule="evenodd" d="M24.947 38.925a1.665 1.665 0 012.026-2.482c.307.131.567.351.747.632 1.93 2.893 4.204 4.259 6.947 4.259 2.743 0 5.018-1.366 6.947-4.258a1.667 1.667 0 012.773 1.849c-2.516 3.774-5.796 5.742-9.72 5.742-3.924 0-7.204-1.968-9.72-5.742z" fill="#3177BB"/></svg>