<svg viewBox="0 0 16 22" fill="none" xmlns="http://www.w3.org/2000/svg"><path d="M9.06.15l3.54 3.53a.51.51 0 010 .71L9.06 7.92a.5.5 0 01-.71 0l-.2-.2A.49.49 0 018 7.36V5a6 6 0 00-5.31 8.79.5.5 0 01-.09.59l-.73.73a.5.5 0 01-.79-.11A8 8 0 018 3V.71a.49.49 0 01.15-.36l.2-.2a.5.5 0 01.71 0zM6.94 14.08L3.4 17.61a.51.51 0 000 .71l3.54 3.53a.498.498 0 00.71 0l.2-.2a.49.49 0 00.15-.36V19a7.999 7.999 0 006.92-12 .52.52 0 00-.596-.219.5.5 0 00-.194.12l-.74.74a.51.51 0 00-.09.59c.46.85.7 1.802.7 2.77a6 6 0 01-6 6v-2.36a.49.49 0 00-.15-.36l-.2-.2a.498.498 0 00-.71 0z" fill="#6F737A"/></svg>